<svg width="200" height="200" viewBox="0 0 200 200" fill="none" xmlns="http://www.w3.org/2000/svg">

  <!-- Bag Body -->
  <path d="M60 90C60 75 70 65 85 65H115C130 65 140 75 140 90V140C140 160 125 175 100 175C75 175 60 160 60 140V90Z"
        fill="oklch(0.50 0.08 265)"/>

  <!-- Top Cap -->
  <ellipse cx="100" cy="65" rx="30" ry="10"
           fill="oklch(0.44 0.07 265)"/>

  <!-- Rope -->
  <path d="M70 65C70 57.5 82.5 55 100 55C117.5 55 130 57.5 130 65"
        stroke="oklch(0.38 0.06 265)"
        stroke-width="5"
        fill="none"/>

  <!-- Left Knot -->
  <path d="M80 65C80 60 77.5 57.5 75 60C72.5 62.5 72.5 67.5 75 70C77.5 72.5 80 70 80 65Z"
        fill="oklch(0.38 0.06 265)"/>

  <!-- Right Knot -->
  <path d="M120 65C120 60 122.5 57.5 125 60C127.5 62.5 127.5 67.5 125 70C122.5 72.5 120 70 120 65Z"
        fill="oklch(0.38 0.06 265)"/>

  <!-- Dollar Sign -->
  <g>
    <path d="M100 85L100 77.5"
          stroke="oklch(0.98 0 0)"
          stroke-width="6"
          stroke-linecap="round"/>

    <path d="M100 142.5L100 135"
          stroke="oklch(0.98 0 0)"
          stroke-width="6"
          stroke-linecap="round"/>

    <path d="M112.5 97.5C112.5 90.5 107 85 100 85C93 85 87.5 90.5 87.5 97.5C87.5 104.5 93 110 100 110C107 110 112.5 115.5 112.5 122.5C112.5 129.5 107 135 100 135C93 135 87.5 129.5 87.5 122.5"
          stroke="oklch(0.98 0 0)"
          stroke-width="6"
          stroke-linecap="round"
          fill="none"/>
  </g>

  <!-- Highlight (soft cool glow instead of orange shine) -->
  <ellipse cx="82" cy="100" rx="8" ry="15"
           fill="oklch(0.75 0.05 265)"
           opacity="0.25"/>

  <ellipse cx="88" cy="105" rx="5" ry="10"
           fill="oklch(1 0 0)"
           opacity="0.15"/>

</svg>